<svg width="175" height="25" viewBox="0 0 175 25" fill="none" xmlns="http://www.w3.org/2000/svg">
<path d="M0.0590072 0.702248C-0.0117737 0.496259 -0.0189048 0.327719 0.0377654 0.196629C0.108546 0.0655398 0.221887 0 0.377635 0H2.92666C3.13908 0 3.31606 0.0655398 3.4577 0.196629C3.59934 0.327719 3.70555 0.496259 3.77633 0.702248L7.06882 10.1124H7.28123L10.1489 0.702248C10.2905 0.23408 10.5737 0 10.9986 0H13.5476C13.7033 0 13.8095 0.0655398 13.8662 0.196629C13.937 0.327719 13.937 0.496259 13.8662 0.702248L8.98058 15.309C8.73987 16.0393 8.47078 16.6947 8.17339 17.2753C7.89019 17.8558 7.55032 18.3427 7.15378 18.736C6.75724 19.1292 6.30411 19.4289 5.7943 19.6348C5.2845 19.8408 4.68267 19.9438 3.98875 19.9438H3.13907C2.78502 19.9438 2.60803 19.7098 2.60803 19.2416V16.7135C2.60803 16.2453 2.78502 16.0112 3.13907 16.0112H3.98875C4.35692 16.0112 4.64725 15.8895 4.85966 15.6461C5.07208 15.3839 5.20659 15.0374 5.26326 14.6067L0.0590072 0.702248ZM23.1434 10.5337C23.1434 11.0019 22.9664 11.236 22.6124 11.236H20.7006C20.3466 11.236 20.1696 11.0019 20.1696 10.5337V9.97191C20.1696 9.54123 20.0704 9.20415 19.8722 8.96068C19.6881 8.69854 19.4332 8.56742 19.1075 8.56742H17.0895C16.7638 8.56742 16.5018 8.69854 16.3036 8.96068C16.1194 9.20415 16.0274 9.54123 16.0274 9.97191V15.0281C16.0274 15.4588 16.1194 15.8053 16.3036 16.0674C16.5018 16.3109 16.7638 16.4326 17.0895 16.4326H19.1075C19.4332 16.4326 19.6881 16.3109 19.8722 16.0674C20.0704 15.8053 20.1696 15.4588 20.1696 15.0281V14.4663C20.1696 13.9981 20.3466 13.764 20.7006 13.764H22.6124C22.9664 13.764 23.1434 13.9981 23.1434 14.4663V15.5899C23.1434 16.9944 22.8602 18.0711 22.2938 18.8202C21.7273 19.5693 20.913 19.9438 19.8509 19.9438H16.346C15.2839 19.9438 14.4697 19.5693 13.9032 18.8202C13.3368 18.0711 13.0536 16.9944 13.0536 15.5899V9.41011C13.0536 8.00562 13.3368 6.92887 13.9032 6.17978C14.4697 5.43068 15.2839 5.05618 16.346 5.05618H19.8509C20.913 5.05618 21.7273 5.43068 22.2938 6.17978C22.8602 6.92887 23.1434 8.00562 23.1434 9.41011V10.5337ZM28.6351 15.8708C28.4369 17.2191 28.0475 18.2397 27.4668 18.9326C26.8862 19.6067 26.0366 19.9438 24.9178 19.9438H24.2806C23.9266 19.9438 23.7495 19.7098 23.7495 19.2416V17.1348C23.7495 16.6666 23.9266 16.4326 24.2806 16.4326H24.5992C24.9249 16.4326 25.1869 16.3109 25.3851 16.0674C25.5834 15.8239 25.7109 15.5244 25.7675 15.1685L27.2544 6.03933C27.3253 5.57113 27.573 5.33708 27.9979 5.33708H34.4766C34.8307 5.33708 35.0077 5.57113 35.0077 6.03933V18.9607C35.0077 19.4289 34.8307 19.6629 34.4766 19.6629H32.5649C32.2109 19.6629 32.0338 19.4289 32.0338 18.9607V8.84831H29.6972L28.6351 15.8708ZM43.5345 6.03933C43.5911 5.83337 43.6761 5.66483 43.7894 5.53371C43.9027 5.40259 44.0655 5.33708 44.2779 5.33708H46.4021C46.7562 5.33708 46.8624 5.57113 46.7207 6.03933L42.6848 20.5056C42.3166 21.8352 41.7714 22.912 41.0492 23.736C40.3269 24.5787 39.3852 25 38.224 25H37.5867C37.2328 25 37.0557 24.766 37.0557 24.2978V22.191C37.0557 21.7228 37.2328 21.4888 37.5867 21.4888H38.224C38.5922 21.4888 38.8825 21.3857 39.0949 21.1798C39.3073 20.9925 39.4702 20.7678 39.5835 20.5056C39.7109 20.2247 39.7888 19.897 39.8171 19.5225L35.8874 6.03933C35.7458 5.57113 35.852 5.33708 36.206 5.33708H38.3302C38.5426 5.33708 38.7055 5.40259 38.8188 5.53371C38.9321 5.66483 39.0171 5.83337 39.0737 6.03933L41.3041 14.3258H41.5165L43.5345 6.03933ZM47.5958 6.03933C47.5958 5.57113 47.7729 5.33708 48.1269 5.33708H55.3491C55.7032 5.33708 55.8802 5.57113 55.8802 6.03933V8.14607C55.8802 8.61427 55.7032 8.84831 55.3491 8.84831H50.5697V18.9607C50.5697 19.4289 50.3927 19.6629 50.0386 19.6629H48.1269C47.7729 19.6629 47.5958 19.4289 47.5958 18.9607V6.03933ZM63.7085 6.03933C63.8217 5.83337 63.9348 5.66483 64.0485 5.53371C64.176 5.40259 64.3459 5.33708 64.5584 5.33708H66.5763C66.9299 5.33708 67.1074 5.57113 67.1074 6.03933V18.9607C67.1074 19.4289 66.9299 19.6629 66.5763 19.6629H64.6646C64.3103 19.6629 64.1335 19.4289 64.1335 18.9607V11.5169H63.9211L60.3098 18.9607C60.1965 19.1666 60.0762 19.3352 59.9487 19.4663C59.8354 19.5974 59.6726 19.6629 59.4602 19.6629H57.4422C57.0881 19.6629 56.9111 19.4289 56.9111 18.9607V6.03933C56.9111 5.57113 57.0881 5.33708 57.4422 5.33708H59.3539C59.7079 5.33708 59.885 5.57113 59.885 6.03933V13.4831H60.0974L63.7085 6.03933ZM79.9951 6.03933C80.1081 5.83337 80.2212 5.66483 80.335 5.53371C80.4624 5.40259 80.6324 5.33708 80.8448 5.33708H82.8628C83.2163 5.33708 83.3938 5.57113 83.3938 6.03933V18.9607C83.3938 19.4289 83.2163 19.6629 82.8628 19.6629H80.951C80.5967 19.6629 80.4199 19.4289 80.4199 18.9607V11.5169H80.2075L76.5964 18.9607C76.4826 19.1666 76.3628 19.3352 76.2353 19.4663C76.1215 19.5974 75.9592 19.6629 75.7467 19.6629H73.7288C73.3745 19.6629 73.1977 19.4289 73.1977 18.9607V6.03933C73.1977 5.57113 73.3745 5.33708 73.7288 5.33708H75.6405C75.9941 5.33708 76.1716 5.57113 76.1716 6.03933V13.4831H76.384L79.9951 6.03933ZM99.574 10.5337C99.574 11.0019 99.3965 11.236 99.043 11.236H97.1312C96.7769 11.236 96.6002 11.0019 96.6002 10.5337V9.97191C96.6002 9.54123 96.5008 9.20415 96.3028 8.96068C96.1184 8.69854 95.8635 8.56742 95.5381 8.56742H93.5201C93.1939 8.56742 92.9322 8.69854 92.7341 8.96068C92.5498 9.20415 92.458 9.54123 92.458 9.97191V15.0281C92.458 15.4588 92.5498 15.8053 92.7341 16.0674C92.9322 16.3109 93.1939 16.4326 93.5201 16.4326H95.5381C95.8635 16.4326 96.1184 16.3109 96.3028 16.0674C96.5008 15.8053 96.6002 15.4588 96.6002 15.0281V14.4663C96.6002 13.9981 96.7769 13.764 97.1312 13.764H99.043C99.3965 13.764 99.574 13.9981 99.574 14.4663V15.5899C99.574 16.9944 99.2903 18.0711 98.7243 18.8202C98.1576 19.5693 97.3436 19.9438 96.2815 19.9438H92.7766C91.7145 19.9438 90.8998 19.5693 90.3338 18.8202C89.7671 18.0711 89.4841 16.9944 89.4841 15.5899V9.41011C89.4841 8.00562 89.7671 6.92887 90.3338 6.17978C90.8998 5.43068 91.7145 5.05618 92.7766 5.05618H96.2815C97.3436 5.05618 98.1576 5.43068 98.7243 6.17978C99.2903 6.92887 99.574 8.00562 99.574 9.41011V10.5337ZM107.827 16.4326C108.252 16.4326 108.464 16.1517 108.464 15.5899C108.464 15.1217 108.641 14.8876 108.996 14.8876H110.907C111.261 14.8876 111.438 15.1217 111.438 15.5899C111.438 16.9944 111.155 18.0711 110.589 18.8202C110.022 19.5693 109.208 19.9438 108.146 19.9438H104.747C103.685 19.9438 102.87 19.5693 102.304 18.8202C101.738 18.0711 101.455 16.9944 101.455 15.5899V9.41011C101.455 8.00562 101.738 6.92887 102.304 6.17978C102.87 5.43068 103.685 5.05618 104.747 5.05618H108.252C109.314 5.05618 110.128 5.43068 110.695 6.17978C111.261 6.92887 111.545 8.00562 111.545 9.41011V13.0618C111.545 13.53 111.367 13.764 111.014 13.764H104.429V15.0281C104.429 15.4588 104.52 15.8053 104.705 16.0674C104.903 16.3109 105.164 16.4326 105.491 16.4326H107.827ZM104.429 10.6742H108.571V9.83146C108.571 9.40078 108.471 9.0637 108.273 8.82022C108.089 8.55809 107.834 8.42697 107.509 8.42697H105.491C105.164 8.42697 104.903 8.55809 104.705 8.82022C104.52 9.0637 104.429 9.40078 104.429 9.83146V10.6742ZM120.43 5.05618C121.492 5.05618 122.306 5.43068 122.873 6.17978C123.439 6.92887 123.722 8.00562 123.722 9.41011V15.309C123.722 16.7135 123.439 17.7902 122.873 18.5393C122.306 19.2884 121.492 19.6629 120.43 19.6629H116.606V24.2978C116.606 24.766 116.429 25 116.075 25H114.163C113.809 25 113.632 24.766 113.632 24.2978V6.03933C113.632 5.57113 113.809 5.33708 114.163 5.33708H116.075C116.429 5.33708 116.606 5.57113 116.606 6.03933V6.74157H116.819C116.861 6.42326 116.96 6.14236 117.116 5.89888C117.243 5.69292 117.42 5.50562 117.647 5.33708C117.888 5.14978 118.214 5.05618 118.624 5.05618H120.43ZM119.686 16.1517C120.012 16.1517 120.267 16.03 120.451 15.7865C120.649 15.5244 120.748 15.1779 120.748 14.7472V9.97191C120.748 9.54123 120.649 9.20415 120.451 8.96068C120.267 8.69854 120.012 8.56742 119.686 8.56742H117.881C117.513 8.56742 117.208 8.72663 116.967 9.04494C116.727 9.36326 116.606 9.76595 116.606 10.2528V16.1517H119.686ZM131.758 5.33708C132.82 5.33708 133.635 5.70225 134.2 6.43259C134.767 7.14416 135.05 8.13674 135.05 9.41011C135.05 9.89697 134.986 10.2997 134.859 10.618C134.746 10.9363 134.612 11.1985 134.455 11.4045C134.285 11.6292 134.094 11.8071 133.882 11.9382V12.2191C134.222 12.3315 134.519 12.5188 134.774 12.7809C135.001 13.0056 135.206 13.3334 135.39 13.764C135.589 14.1761 135.687 14.7379 135.687 15.4494C135.687 16.7978 135.404 17.8371 134.838 18.5674C134.272 19.2978 133.457 19.6629 132.395 19.6629H126.341C125.987 19.6629 125.81 19.4289 125.81 18.9607V6.03933C125.81 5.57113 125.987 5.33708 126.341 5.33708H131.758ZM132.714 15.1685C132.714 14.4194 132.431 14.0449 131.864 14.0449H128.784V16.2921H131.864C132.431 16.2921 132.714 15.9176 132.714 15.1685ZM132.076 9.69101C132.076 9.41011 132.006 9.17607 131.864 8.98877C131.723 8.80147 131.545 8.70787 131.333 8.70787H128.784V10.6742H131.333C131.545 10.6742 131.723 10.5806 131.864 10.3933C132.006 10.206 132.076 9.97191 132.076 9.69101ZM144.163 6.03933C144.277 5.83337 144.39 5.66483 144.503 5.53371C144.63 5.40259 144.8 5.33708 145.013 5.33708H147.031C147.385 5.33708 147.562 5.57113 147.562 6.03933V18.9607C147.562 19.4289 147.385 19.6629 147.031 19.6629H145.119C144.765 19.6629 144.588 19.4289 144.588 18.9607V11.5169H144.375L140.764 18.9607C140.651 19.1666 140.531 19.3352 140.403 19.4663C140.29 19.5974 140.127 19.6629 139.915 19.6629H137.897C137.543 19.6629 137.366 19.4289 137.366 18.9607V6.03933C137.366 5.57113 137.543 5.33708 137.897 5.33708H139.808C140.163 5.33708 140.339 5.57113 140.339 6.03933V13.4831H140.552L144.163 6.03933ZM159.737 10.5337C159.737 11.0019 159.56 11.236 159.206 11.236H157.294C156.941 11.236 156.763 11.0019 156.763 10.5337V9.97191C156.763 9.54123 156.665 9.20415 156.466 8.96068C156.282 8.69854 156.027 8.56742 155.701 8.56742H153.683C153.358 8.56742 153.096 8.69854 152.897 8.96068C152.714 9.20415 152.621 9.54123 152.621 9.97191V15.0281C152.621 15.4588 152.714 15.8053 152.897 16.0674C153.096 16.3109 153.358 16.4326 153.683 16.4326H155.701C156.027 16.4326 156.282 16.3109 156.466 16.0674C156.665 15.8053 156.763 15.4588 156.763 15.0281V14.4663C156.763 13.9981 156.941 13.764 157.294 13.764H159.206C159.56 13.764 159.737 13.9981 159.737 14.4663V15.5899C159.737 16.9944 159.454 18.0711 158.887 18.8202C158.321 19.5693 157.507 19.9438 156.444 19.9438H152.94C151.878 19.9438 151.063 19.5693 150.497 18.8202C149.931 18.0711 149.647 16.9944 149.647 15.5899V9.41011C149.647 8.00562 149.931 6.92887 150.497 6.17978C151.063 5.43068 151.878 5.05618 152.94 5.05618H156.444C157.507 5.05618 158.321 5.43068 158.887 6.17978C159.454 6.92887 159.737 8.00562 159.737 9.41011V10.5337ZM164.06 5.33708C164.415 5.33708 164.592 5.57113 164.592 6.03933V9.55056H167.459C168.521 9.55056 169.336 9.92506 169.902 10.6742C170.469 11.4233 170.752 12.5 170.752 13.9045V15.309C170.752 16.7135 170.469 17.7902 169.902 18.5393C169.336 19.2884 168.521 19.6629 167.459 19.6629H162.149C161.795 19.6629 161.618 19.4289 161.618 18.9607V6.03933C161.618 5.57113 161.795 5.33708 162.149 5.33708H164.06ZM167.778 14.3258C167.778 13.8952 167.679 13.5581 167.48 13.3146C167.297 13.0525 167.042 12.9213 166.716 12.9213H164.592V16.2921H166.716C167.042 16.2921 167.297 16.1704 167.48 15.927C167.679 15.6648 167.778 15.3183 167.778 14.8876V14.3258ZM174.469 5.33708C174.823 5.33708 175 5.57113 175 6.03933V18.9607C175 19.4289 174.823 19.6629 174.469 19.6629H172.557C172.204 19.6629 172.026 19.4289 172.026 18.9607V6.03933C172.026 5.57113 172.204 5.33708 172.557 5.33708H174.469Z" fill="#FAEBD7"/>
</svg>
